<svg width="48" height="38" fill="none" xmlns="http://www.w3.org/2000/svg"><path fill-rule="evenodd" clip-rule="evenodd" d="M45.917 37.667s3.083 0 3.083-3.111c0-3.112-3.083-12.445-15.417-12.445-12.333 0-15.416 9.333-15.416 12.445 0 3.11 3.083 3.11 3.083 3.11h24.667zm-24.6-3.111H45.85a.916.916 0 00.043-.007l.025-.006c-.007-.821-.515-3.204-2.344-5.351-1.702-2.013-4.693-3.97-9.99-3.97-5.294 0-8.285 1.96-9.99 3.97-1.828 2.147-2.34 4.533-2.343 5.351a3 3 0 00.068.013zm12.266-18.667a6.139 6.139 0 004.36-1.823 6.25 6.25 0 001.807-4.4 6.25 6.25 0 00-1.806-4.4 6.139 6.139 0 00-4.36-1.822 6.139 6.139 0 00-4.361 1.823 6.25 6.25 0 00-1.806 4.4c0 1.65.65 3.232 1.806 4.4a6.139 6.139 0 004.36 1.822zm9.25-6.222a9.401 9.401 0 01-.704 3.571 9.338 9.338 0 01-2.005 3.028 9.245 9.245 0 01-3 2.024 9.179 9.179 0 01-7.08 0 9.245 9.245 0 01-3.001-2.024 9.338 9.338 0 01-2.006-3.028 9.405 9.405 0 01-.704-3.571c0-2.476.975-4.85 2.71-6.6a9.208 9.208 0 016.54-2.734c2.453 0 4.806.984 6.541 2.734a9.376 9.376 0 012.71 6.6zm-21.78 13.315a17.99 17.99 0 00-3.793-.768 22.28 22.28 0 00-2.177-.103C2.75 22.111-.333 31.444-.333 34.556c0 2.075 1.026 3.11 3.083 3.11h13a7.015 7.015 0 01-.667-3.11c0-3.143 1.163-6.353 3.361-9.035.75-.915 1.622-1.77 2.609-2.539zm-6.216 2.24c-5.143.062-8.063 1.991-9.744 3.97-1.84 2.159-2.343 4.551-2.343 5.364H12c0-3.252.996-6.49 2.837-9.334zm-10.545-14c0-2.475.974-4.85 2.709-6.6a9.208 9.208 0 016.54-2.733c2.454 0 4.807.983 6.541 2.733a9.376 9.376 0 012.71 6.6c0 2.476-.975 4.85-2.71 6.6a9.209 9.209 0 01-6.54 2.733A9.209 9.209 0 017 17.822a9.376 9.376 0 01-2.71-6.6zM13.542 5a6.139 6.139 0 00-4.36 1.822 6.25 6.25 0 00-1.807 4.4c0 1.65.65 3.233 1.806 4.4a6.139 6.139 0 004.36 1.822 6.139 6.139 0 004.361-1.822 6.25 6.25 0 001.806-4.4 6.25 6.25 0 00-1.806-4.4A6.139 6.139 0 0013.542 5z" fill="#23A6F0"/></svg>