<svg width="24" height="18" fill="none" xmlns="http://www.w3.org/2000/svg"><path d="M23.47 2.931a3.192 3.192 0 00-.775-1.409 2.966 2.966 0 00-1.34-.815c-1.867-.53-9.367-.53-9.367-.53s-7.5 0-9.367.53a2.966 2.966 0 00-1.34.815c-.372.39-.639.876-.775 1.41A34.16 34.16 0 000 9a34.16 34.16 0 00.505 6.068c.136.533.403 1.019.775 1.409.37.39.833.671 1.34.815 1.866.53 9.367.53 9.367.53s7.5 0 9.367-.53a2.966 2.966 0 001.34-.815c.371-.39.639-.876.775-1.41.348-2 .518-4.033.505-6.067a34.162 34.162 0 00-.505-6.069zm-13.88 9.85V5.218L15.815 9 9.59 12.78z" fill="#E42F08"/></svg>